<?xml version="1.0" encoding="utf-8"?>
<!-- Generator: Adobe Illustrator 16.0.3, SVG Export Plug-In . SVG Version: 6.00 Build 0)  -->
<!DOCTYPE svg PUBLIC "-//W3C//DTD SVG 1.1//EN" "http://www.w3.org/Graphics/SVG/1.1/DTD/svg11.dtd">
<svg version="1.1" xmlns="http://www.w3.org/2000/svg" xmlns:xlink="http://www.w3.org/1999/xlink" x="0px" y="0px"
	 width="76.964px" height="76.966px" viewBox="0 0 76.964 76.966" enable-background="new 0 0 76.964 76.966" xml:space="preserve">
<g id="bmark">
</g>
<g id="bg">
</g>
<g id="bg2">
</g>
<g id="bg3">
</g>
<g id="Layer_2">
</g>
<g id="header_bg">
</g>
<g id="header">
	<g>
		<circle fill="#C31929" cx="38.482" cy="38.482" r="37.982"/>
		<g>
			<path fill="#F9A2A2" d="M38.482,76.966C17.263,76.966,0,59.702,0,38.482C0,17.263,17.263,0,38.482,0
				c21.219,0,38.482,17.263,38.482,38.482C76.964,59.702,59.701,76.966,38.482,76.966z M38.482,1C17.814,1,1,17.814,1,38.482
				c0,20.668,16.814,37.483,37.482,37.483s37.482-16.815,37.482-37.483C75.964,17.814,59.15,1,38.482,1z"/>
		</g>
		<g>
			<path fill="#FFFFFF" d="M59.477,35.484c0-8.272-9.396-14.997-20.995-14.997c-11.598,0-20.994,6.724-20.994,14.997
				c0,4.756,3.093,8.997,7.919,11.739c-1.101,3.913-2.788,5.318-4.264,6.982c-0.352,0.422-0.75,0.772-0.633,1.358c0,0,0,0,0,0.024
				c0.117,0.515,0.539,0.89,1.008,0.89c0.023,0,0.07,0,0.117,0c0.914-0.116,1.827-0.281,2.671-0.516
				c4.053-1.031,7.709-2.953,10.779-5.67c1.101,0.117,2.249,0.187,3.397,0.187C50.082,50.479,59.477,43.778,59.477,35.484z
				 M38.482,23.486c9.748,0,17.996,5.483,17.996,11.998c0,6.513-8.248,11.996-17.996,11.996c-1.008,0-2.038-0.069-3.045-0.187
				l-1.336-0.142l-1.007,0.891c-1.921,1.688-4.077,3.022-6.444,4.008c0.609-1.079,1.196-2.367,1.641-4.031l0.632-2.249l-2.038-1.171
				c-4.054-2.297-6.396-5.624-6.396-9.115C20.488,28.969,28.735,23.486,38.482,23.486z M32.484,35.484c0-1.664-1.335-3-3-3
				c-1.664,0-2.999,1.336-2.999,3c0,1.662,1.335,2.999,2.999,2.999C31.149,38.482,32.484,37.146,32.484,35.484z M41.481,35.484
				c0-1.664-1.334-3-2.999-3c-1.664,0-2.999,1.336-2.999,3c0,1.662,1.335,2.999,2.999,2.999
				C40.147,38.482,41.481,37.146,41.481,35.484z M50.479,35.484c0-1.664-1.335-3-2.999-3c-1.663,0-2.999,1.336-2.999,3
				c0,1.662,1.336,2.999,2.999,2.999C49.144,38.482,50.479,37.146,50.479,35.484z"/>
		</g>
	</g>
</g>
<g id="margin" display="none">
</g>
<g id="Layer_10">
</g>
<g id="notes">
</g>
</svg>
