<svg version="1.1" xmlns="http://www.w3.org/2000/svg" xmlns:xlink="http://www.w3.org/1999/xlink" x="0px" y="0px"
	 width="25.916px" height="26.299px" viewBox="0 0 25.916 26.299" enable-background="new 0 0 25.916 26.299" xml:space="preserve">
<g id="bmark">
</g>
<g id="bg">
</g>
<g id="bg2">
</g>
<g id="bg3">
</g>
<g id="Layer_2">
</g>
<g id="header_bg">
</g>
<g id="header">
</g>
<g id="margin">
</g>
<g id="Layer_10">
	<circle fill="#D10C0F" cx="19.031" cy="6.692" r="5.081"/>
	<path d="M14.572,14.952c0,0.898,0.721,1.619,1.619,1.619s1.619-0.721,1.619-1.619s-0.721-1.619-1.619-1.619
		S14.572,14.054,14.572,14.952z"/>
	<path d="M20.377,12.646c0.427,0.721,0.671,1.498,0.671,2.306c0,3.517-4.453,6.477-9.715,6.477c-0.544,0-1.101-0.038-1.645-0.101
		l-0.721-0.076l-0.544,0.481c-1.038,0.911-2.201,1.632-3.479,2.163c0.329-0.582,0.646-1.278,0.886-2.176l0.341-1.214l-1.101-0.632
		c-2.188-1.24-3.453-3.036-3.453-4.921c0-3.517,4.453-6.477,9.715-6.477c0.648,0,1.284,0.046,1.901,0.131
		c-0.174-0.526-0.274-1.083-0.299-1.66c-0.524-0.053-1.057-0.09-1.602-0.09C5.072,6.856,0,10.487,0,14.952
		c0,2.568,1.67,4.857,4.275,6.337c-0.594,2.112-1.426,2.872-2.223,3.77c-0.189,0.228-0.262,0.417-0.262,0.734c0,0,0,0,0,0.013
		c0,0.278,0.132,0.757,0.385,0.757c0.013,0,0.038,0,0.063,0c0.494,0,0.987-0.29,1.442-0.417c2.188-0.557,4.162-1.663,5.819-3.13
		c0.594,0.063,1.214,0.066,1.834,0.066c6.262,0,11.334-3.635,11.334-8.113c0-1.015-0.273-1.991-0.752-2.887
		C21.438,12.34,20.92,12.523,20.377,12.646z"/>
	<path d="M9.715,14.952c0,0.898,0.721,1.619,1.619,1.619s1.619-0.721,1.619-1.619s-0.721-1.619-1.619-1.619
		S9.715,14.054,9.715,14.952z"/>
	<path d="M4.857,14.952c0,0.898,0.721,1.619,1.619,1.619s1.619-0.721,1.619-1.619s-0.721-1.619-1.619-1.619
		S4.857,14.054,4.857,14.952z"/>
	<g>
		<path fill="#FFFFFF" d="M19.605,8.129c0,0.119-0.019,0.221-0.055,0.305s-0.086,0.154-0.15,0.209
			c-0.064,0.055-0.138,0.096-0.223,0.123c-0.085,0.027-0.175,0.041-0.271,0.041c-0.091,0-0.179-0.014-0.264-0.041
			s-0.159-0.068-0.223-0.123c-0.064-0.055-0.115-0.125-0.154-0.209c-0.039-0.084-0.059-0.186-0.059-0.305
			c0-0.114,0.02-0.213,0.059-0.298c0.039-0.084,0.09-0.154,0.154-0.209s0.138-0.096,0.223-0.124
			c0.084-0.027,0.172-0.041,0.264-0.041c0.096,0,0.186,0.014,0.271,0.041c0.084,0.028,0.159,0.069,0.223,0.124
			s0.114,0.125,0.15,0.209S19.605,8.016,19.605,8.129z M18.358,6.924L18.29,3.91h1.233l-0.068,3.014H18.358z"/>
	</g>
</g>
<g id="notes">
</g>
</svg>
